<?xml version="1.0" encoding="UTF-8"?>
<svg width="314px" height="125px" viewBox="0 0 314 125" version="1.1" xmlns="http://www.w3.org/2000/svg" xmlns:xlink="http://www.w3.org/1999/xlink">
    <title>Group 3</title>
    <g id="Page-1" stroke="none" stroke-width="1" fill="none" fill-rule="evenodd">
        <g id="Artboard" transform="translate(-365.000000, -248.000000)">
            <g id="Group-3" transform="translate(366.000000, 248.000000)">
                <g id="Group" transform="translate(95.000000, 0.000000)">
                    <path d="M3.95287934,39.1644205 L54.3748505,2.17177769 C58.3217726,-0.723925895 63.6782274,-0.723925895 67.6251495,2.17177769 L118.047121,39.1644205 C120.53123,40.9869151 122,43.8921652 122,46.9832779 L122,115.319619 C122,120.665946 117.687795,125 112.368421,125 L9.63157895,125 C4.31220478,125 0,120.665946 0,115.319619 L0,46.9832779 C0,43.8921652 1.46876999,40.9869151 3.95287934,39.1644205 Z" id="Rectangle" fill="#C5D2D9"></path>
                    <path d="M103.704082,11.5 L18.2959184,11.5 C17.8000802,11.5 17.351219,11.7013593 17.0262938,12.0268025 C16.7010805,12.3525342 16.5,12.8025471 16.5,13.2995781 L16.5,117.700422 C16.5,118.197453 16.7010805,118.647466 17.0262938,118.973197 C17.351219,119.298641 17.8000802,119.5 18.2959184,119.5 L103.704082,119.5 C104.19992,119.5 104.648781,119.298641 104.973706,118.973197 C105.29892,118.647466 105.5,118.197453 105.5,117.700422 L105.5,13.2995781 C105.5,12.8025471 105.29892,12.3525342 104.973706,12.0268025 C104.648781,11.7013593 104.19992,11.5 103.704082,11.5 Z" id="Rectangle" stroke="#C5D2D9" fill="#FFFFFF"></path>
                    <g id="Group-8" transform="translate(41.000000, 28.000000)">
                        <polygon id="Stroke-1" stroke-opacity="0.0117647061" stroke="#000000" stroke-width="1.33333336e-11" points="0 0 39.9999983 0 39.9999983 39.9999983 0 39.9999983"></polygon>
                        <g id="Group-7" transform="translate(6.000000, 1.000000)" stroke="#3EB0EF" stroke-linecap="round" stroke-linejoin="round" stroke-width="1.5">
                            <path d="M2.74999962,15.249999 L25.2499996,15.249999 C26.9166647,15.249999 27.7499996,16.0833323 27.7499996,17.749999 L27.7499996,35.249999 C27.7499996,36.9166644 26.9166647,37.749999 25.2499996,37.749999 L2.74999962,37.749999 C1.08333291,37.749999 0.249999625,36.9166644 0.249999625,35.249999 L0.249999625,17.749999 C0.249999625,16.0833323 1.08333291,15.249999 2.74999962,15.249999 Z" id="Stroke-3"></path>
                            <path d="M5.24999932,15.249999 L5.24999932,8.9999994 C5.24999932,5.63212294 6.7083334,3.10621625 9.62500073,1.42227759 C12.5416687,-0.261660811 15.4583352,-0.261660028 18.3750017,1.42227977 C21.291665,3.10621625 22.7499993,5.6321226 22.7499993,9.00000023 L22.7499993,15.249999" id="Stroke-5"></path>
                            <line x1="13.9999988" y1="23.9999985" x2="13.9999988" y2="28.9999982" id="Stroke-6"></line>
                        </g>
                    </g>
                    <path d="M0.5,51.0225115 L0.5,115.302386 C0.5,117.821604 1.50204518,120.104547 3.14188351,121.765876 C4.77590203,123.421309 7.04272397,124.458926 9.58027098,124.500066 L112.011208,124.5 C113.898902,124.49483 115.65221,123.907827 117.104002,122.907155 L111.464061,119.53853 C44.7684042,79.6984319 9.40972859,58.4719338 5.38767623,55.8595486 C3.08493013,54.3638795 1.46287201,52.7480519 0.5,51.0225115 Z" id="Path" stroke="#C5D2D9" fill="#F2F4F7"></path>
                    <path d="M121.491087,51.1114685 C120.521207,52.8566466 118.882017,54.4901597 116.551816,56.0009091 C112.821359,58.4194919 82.1282629,76.8249355 24.4721964,111.216726 L4.89475107,122.891317 C6.32313536,123.880337 8.05721178,124.468688 10.021887,124.500064 L112.43136,124.5 C114.757152,124.493651 116.878665,123.605612 118.483723,122.149953 C120.100495,120.68367 121.193619,118.641696 121.445766,116.344043 L121.491087,51.1114685 Z" id="Path" stroke="#C5D2D9" fill="#F8FAFC"></path>
                </g>
                <line x1="0.494791667" y1="105.5" x2="94.5052083" y2="105.5" id="Line-3" stroke="#E5EFF5" stroke-linecap="square"></line>
                <line x1="217.994792" y1="105.5" x2="312.005208" y2="105.5" id="Line-3-Copy" stroke="#E5EFF5" stroke-linecap="square"></line>
            </g>
        </g>
    </g>
</svg>