<?xml version="1.0" encoding="UTF-8"?>
<svg width="122px" height="77px" viewBox="0 0 122 77" version="1.1" xmlns="http://www.w3.org/2000/svg" xmlns:xlink="http://www.w3.org/1999/xlink">
    <title>envelope-front</title>
    <g id="Page-1" stroke="none" stroke-width="1" fill="none" fill-rule="evenodd">
        <g id="Fi-export" transform="translate(-461.000000, -296.000000)" stroke="#C5D2D9">
            <g id="envelope-front" transform="translate(461.000000, 296.000000)">
                <path d="M0.5,3.02251148 L0.5,67.302386 C0.5,69.8216043 1.50204518,72.1045466 3.14188351,73.7658759 C4.77590203,75.421309 7.04272397,76.4589259 9.58027098,76.5000657 L112.011208,76.5 C113.898902,76.49483 115.65221,75.9078266 117.104002,74.9071555 L111.464061,71.5385304 C44.7684042,31.6984319 9.40972859,10.4719338 5.38767623,7.85954864 C3.08493013,6.36387948 1.46287201,4.74805188 0.5,3.02251148 Z" id="Path" fill="#F2F4F7"></path>
                <path d="M121.491087,3.11146852 C120.521207,4.85664664 118.882017,6.4901597 116.551816,8.00090906 C112.821359,10.4194919 82.1282629,28.8249355 24.4721964,63.2167259 L4.89475107,74.8913173 C6.32313536,75.8803368 8.05721178,76.4686883 10.021887,76.5000637 L112.43136,76.5 C114.757152,76.493651 116.878665,75.6056123 118.483723,74.1499533 C120.100495,72.6836699 121.193619,70.6416963 121.445766,68.344043 L121.491087,3.11146852 Z" id="Path" fill="#F8FAFC"></path>
            </g>
        </g>
    </g>
</svg>