<?xml version="1.0" encoding="UTF-8"?>
<svg width="40px" height="40px" viewBox="0 0 40 40" version="1.1" xmlns="http://www.w3.org/2000/svg" xmlns:xlink="http://www.w3.org/1999/xlink">
    <title>lock</title>
    <g id="Page-1" stroke="none" stroke-width="1" fill="none" fill-rule="evenodd">
        <g id="Fi-export" transform="translate(-502.000000, -276.000000)">
            <g id="lock" transform="translate(502.000000, 276.000000)">
                <polygon id="Stroke-1" stroke-opacity="0.0117647061" stroke="#000000" stroke-width="1.33333336e-11" points="0 0 39.9999983 0 39.9999983 39.9999983 0 39.9999983"></polygon>
                <g id="Group-7" transform="translate(6.000000, 1.000000)" stroke="#3EB0EF" stroke-linecap="round" stroke-linejoin="round" stroke-width="1.5">
                    <path d="M2.74999962,15.249999 L25.2499996,15.249999 C26.9166647,15.249999 27.7499996,16.0833323 27.7499996,17.749999 L27.7499996,35.249999 C27.7499996,36.9166644 26.9166647,37.749999 25.2499996,37.749999 L2.74999962,37.749999 C1.08333291,37.749999 0.249999625,36.9166644 0.249999625,35.249999 L0.249999625,17.749999 C0.249999625,16.0833323 1.08333291,15.249999 2.74999962,15.249999 Z" id="Stroke-3"></path>
                    <path d="M5.24999932,15.249999 L5.24999932,8.9999994 C5.24999932,5.63212294 6.7083334,3.10621625 9.62500073,1.42227759 C12.5416687,-0.261660811 15.4583352,-0.261660028 18.3750017,1.42227977 C21.291665,3.10621625 22.7499993,5.6321226 22.7499993,9.00000023 L22.7499993,15.249999" id="Stroke-5"></path>
                    <line x1="13.9999988" y1="23.9999985" x2="13.9999988" y2="28.9999982" id="Stroke-6"></line>
                </g>
            </g>
        </g>
    </g>
</svg>